<svg width="1024" height="1024" viewBox="0 0 1024 1024" fill="none" xmlns="http://www.w3.org/2000/svg">
  <defs>
    <linearGradient id="grad1" x1="0%" y1="0%" x2="100%" y2="100%">
      <stop offset="0%" style="stop-color:#1E3A8A;stop-opacity:1" />
      <stop offset="50%" style="stop-color:#3B82F6;stop-opacity:1" />
      <stop offset="100%" style="stop-color:#60A5FA;stop-opacity:1" />
    </linearGradient>
    <linearGradient id="grad2" x1="0%" y1="0%" x2="100%" y2="100%">
      <stop offset="0%" style="stop-color:#EA580C;stop-opacity:1" />
      <stop offset="50%" style="stop-color:#DC2626;stop-opacity:1" />
      <stop offset="100%" style="stop-color:#B91C1C;stop-opacity:1" />
    </linearGradient>
  </defs>
  
  <!-- Background Circle -->
  <circle cx="512" cy="512" r="512" fill="url(#grad1)"/>
  
  <!-- Map Pin Shape -->
  <path d="M512 200C400 200 310 290 310 402C310 550 512 750 512 750S714 550 714 402C714 290 624 200 512 200Z" fill="url(#grad2)" stroke="#FFFFFF" stroke-width="8"/>
  
  <!-- Inner Circle -->
  <circle cx="512" cy="402" r="80" fill="#FFFFFF"/>
  
  <!-- Sparkle Elements -->
  <g fill="#FFFFFF" opacity="0.8">
    <circle cx="350" cy="300" r="12"/>
    <circle cx="674" cy="280" r="8"/>
    <circle cx="300" cy="450" r="10"/>
    <circle cx="724" cy="480" r="14"/>
    <circle cx="380" cy="600" r="6"/>
    <circle cx="644" cy="620" r="12"/>
  </g>
  
  <!-- Compass Lines -->
  <g stroke="#FFFFFF" stroke-width="4" opacity="0.6">
    <line x1="512" y1="100" x2="512" y2="140"/>
    <line x1="512" y1="884" x2="512" y2="924"/>
    <line x1="100" y1="512" x2="140" y2="512"/>
    <line x1="884" y1="512" x2="924" y2="512"/>
  </g>
</svg>