<svg width="1080" height="1920" viewBox="0 0 1080 1920" fill="none" xmlns="http://www.w3.org/2000/svg">
  <defs>
    <linearGradient id="splashGrad" x1="0%" y1="0%" x2="100%" y2="100%">
      <stop offset="0%" style="stop-color:#1E3A8A;stop-opacity:1" />
      <stop offset="50%" style="stop-color:#3B82F6;stop-opacity:1" />
      <stop offset="100%" style="stop-color:#60A5FA;stop-opacity:1" />
    </linearGradient>
    <linearGradient id="pinGrad" x1="0%" y1="0%" x2="100%" y2="100%">
      <stop offset="0%" style="stop-color:#EA580C;stop-opacity:1" />
      <stop offset="50%" style="stop-color:#DC2626;stop-opacity:1" />
      <stop offset="100%" style="stop-color:#B91C1C;stop-opacity:1" />
    </linearGradient>
  </defs>
  
  <!-- Background -->
  <rect width="1080" height="1920" fill="url(#splashGrad)"/>
  
  <!-- Main Logo -->
  <g transform="translate(540, 960)">
    <!-- Map Pin -->
    <path d="M0 -200C-112 -200 -202 -110 -202 2C202 150 202 350 202 350S202 150 202 2C202 -110 112 -200 0 -200Z" fill="url(#pinGrad)" stroke="#FFFFFF" stroke-width="8"/>
    
    <!-- Inner Circle -->
    <circle cx="0" cy="2" r="80" fill="#FFFFFF"/>
    
    <!-- Inner Dot -->
    <circle cx="0" cy="2" r="40" fill="url(#pinGrad)"/>
  </g>
  
  <!-- App Name -->
  <text x="540" y="1200" text-anchor="middle" fill="#FFFFFF" font-family="serif" font-size="72" font-weight="bold">Hidden Spots</text>
  <text x="540" y="1280" text-anchor="middle" fill="#E2E8F0" font-family="sans-serif" font-size="32">Discover Gwalior</text>
  
  <!-- Decorative Elements -->
  <g fill="#FFFFFF" opacity="0.3">
    <circle cx="200" cy="400" r="8"/>
    <circle cx="880" cy="350" r="12"/>
    <circle cx="150" cy="800" r="6"/>
    <circle cx="930" cy="850" r="10"/>
    <circle cx="180" cy="1400" r="14"/>
    <circle cx="900" cy="1450" r="8"/>
  </g>
</svg>